<?xml version="1.0" encoding="UTF-8" standalone="no"?>
<svg xmlns="http://www.w3.org/2000/svg" viewBox="0 0 512 162">
  <g>
    <!-- "CF" em laranja -->
    <path fill="#ff6600" d="M24,0 L86,0 C96,0 105,9 105,19 L105,45 L86,45 L86,19 L43,19 L43,70 L67,70 L67,89 L43,89 L43,143 L86,143 L86,118 L105,118 L105,143 C105,153 96,162 86,162 L24,162 C14,162 5,153 5,143 L5,19 C5,9 14,0 24,0 Z"/>
    <path fill="#ff6600" d="M130,0 L231,0 L231,19 L192,19 L192,162 L168,162 L168,19 L130,19 L130,0 Z"/>
    <rect fill="#ff6600" x="242" y="6" width="40" height="40" rx="5" ry="5"/>
    <rect fill="#ff6600" x="242" y="63" width="20" height="20" rx="5" ry="5"/>
    
    <!-- "98" em branco -->
    <path fill="#ffffff" d="M296,0 L358,0 C368,0 377,9 377,19 L377,45 L358,45 L358,19 L315,19 L315,70 L358,70 L358,89 L315,89 L315,143 L358,143 L358,118 L377,118 L377,143 C377,153 368,162 358,162 L296,162 C286,162 277,153 277,143 L277,19 C277,9 286,0 296,0 Z"/>
    <path fill="#ffffff" d="M410,0 L472,0 C482,0 491,9 491,19 L491,45 L472,45 L472,19 L429,19 L429,70 L472,70 L472,89 L429,89 L429,143 L472,143 L472,118 L491,118 L491,143 C491,153 482,162 472,162 L410,162 C400,162 391,153 391,143 L391,19 C391,9 400,0 410,0 Z"/>
    
    <!-- Símbolo de Registered -->
    <circle fill="#ffffff" cx="500" cy="15" r="12"/>
    <path fill="#000000" d="M496,10 L496,20 L499,20 L499,16 L501,16 C502,16 503,17 503,17 L504,20 L507,20 L506,17 C505,16 504,15 502,15 C504,15 506,13 506,11 C506,9 504,8 501,8 L496,8 L496,10 Z M499,10 L501,10 C502,10 503,10 503,11 C503,12 502,12 501,12 L499,12 L499,10 Z"/>
  </g>
</svg>